<?xml version="1.0" encoding="utf-8"?>
<!-- Generator: Adobe Illustrator 24.1.2, SVG Export Plug-In . SVG Version: 6.00 Build 0)  -->
<svg version="1.1" id="Laag_1" xmlns="http://www.w3.org/2000/svg" xmlns:xlink="http://www.w3.org/1999/xlink" x="0px" y="0px"
	 viewBox="0 0 300 150" style="enable-background:new 0 0 300 150;" xml:space="preserve">
<style type="text/css">
	.st0{fill:#0D0D0D;}
	.st1{fill:#262626;}
	.st2{fill:#9A8849;}
	.st3{fill:#4C4C4B;}
</style>
<rect class="st0" width="300" height="150"/>
<rect y="47.7" class="st1" width="299.89" height="54.61"/>
<path d="M88.09,131.36H21.71c-4.31,0-7.8-3.49-7.8-7.8V26.44c0-4.31,3.49-7.8,7.8-7.8h66.38c4.31,0,7.8,3.49,7.8,7.8v97.12
	C95.89,127.87,92.4,131.36,88.09,131.36z"/>
<g>
	<g>
		<path class="st2" d="M108.4,60.46h4.83c2.66,0,4.84,2.09,4.84,4.65c0,2.55-2.18,4.64-4.84,4.64h-2.07v4.47h-2.77V60.46z
			 M115.31,65.09c0-1.04-0.93-1.89-2.08-1.89h-2.07v3.81l2.07,0.01C114.38,67.02,115.31,66.15,115.31,65.09z"/>
		<path class="st2" d="M126.79,74.22l-4.38-6.51v6.51h-2.77l-0.01-13.77h4.49c2.57,0,4.68,1.98,4.68,4.46
			c0,1.77-1.07,3.31-2.54,3.83l3.91,5.47H126.79z M122.4,66.66l1.78,0.01c0.94,0.01,1.78-0.75,1.78-1.73c0-0.98-0.85-1.73-1.78-1.73
			h-1.78V66.66z"/>
		<path class="st2" d="M131.49,60.46h2.77v13.77h-2.77V60.46z"/>
		<path class="st2" d="M136.05,67.35c0-3.89,3.27-7.17,7.15-7.17c1.79,0.03,3.38,0.73,4.82,2.13l-1.6,2.18
			c-0.94-0.92-2.07-1.49-3.25-1.49c-2.21,0-4.32,1.96-4.32,4.37c0,2.45,2.19,4.35,4.31,4.35c1.26,0,2.36-0.67,3.27-1.57l1.59,2.24
			c-1.21,1.2-2.69,2.11-4.77,2.11C139.28,74.49,136.05,71.22,136.05,67.35z"/>
		<path class="st2" d="M152.34,63.18v2.69h4.75v2.76h-4.75v2.84h5.53v2.75h-8.3V60.46h8.3v2.72H152.34z"/>
		<path class="st2" d="M165.03,60.46h4.83c2.66,0,4.84,2.09,4.84,4.65c0,2.55-2.18,4.64-4.84,4.64h-2.07v4.47h-2.77V60.46z
			 M171.94,65.09c0-1.04-0.93-1.89-2.08-1.89h-2.07v3.81l2.07,0.01C171.01,67.02,171.94,66.15,171.94,65.09z"/>
		<path class="st2" d="M179.03,63.18v2.69h4.75v2.76h-4.75v2.84h5.53v2.75h-8.3V60.46h8.3v2.72H179.03z"/>
		<path class="st2" d="M193.75,74.22l-4.38-6.51v6.51h-2.77l-0.01-13.77h4.49c2.57,0,4.68,1.98,4.68,4.46
			c0,1.77-1.07,3.31-2.54,3.83l3.91,5.47H193.75z M189.36,66.66l1.78,0.01c0.94,0.01,1.78-0.75,1.78-1.73
			c0-0.98-0.85-1.73-1.78-1.73h-1.78V66.66z"/>
		<path class="st2" d="M202.85,71.85l2.21-1.55c0.61,0.97,1.49,1.42,2.67,1.42c1.3,0,2.17-0.53,2.17-1.26c0-1.01-1.65-1.8-3.09-2.52
			c-1.55-0.77-3.24-1.61-3.24-3.81c0-2.38,2.02-3.95,4.54-3.95c1.88,0,3.43,0.78,4.06,2.44l-2.04,1.43
			c-0.41-0.82-1.2-1.15-1.97-1.15c-1.03,0-1.8,0.6-1.8,1.31c0,0.82,1.04,1.1,2.62,1.84c2.28,1.08,3.71,2.24,3.71,4.36
			c0,2.51-2.05,4.11-5,4.11C205.44,74.5,203.77,73.56,202.85,71.85z"/>
		<path class="st2" d="M222.66,71.47v2.75h-8.3V60.46h2.77v11.02H222.66z"/>
		<path class="st2" d="M223.19,67.36c0-3.95,3.22-7.18,7.16-7.18s7.16,3.23,7.16,7.18c0,3.92-3.23,7.13-7.17,7.13
			C226.41,74.49,223.19,71.28,223.19,67.36z M234.71,67.34c0-2.41-1.96-4.37-4.37-4.37c-2.4,0-4.36,1.96-4.36,4.37
			c0,2.39,1.96,4.35,4.36,4.35C232.75,71.69,234.71,69.73,234.71,67.34z"/>
		<path class="st2" d="M247.33,63.2h-3.38v11.02h-2.78V63.2h-3.39v-2.74h9.55V63.2z"/>
	</g>
	<g>
		<path class="st2" d="M127.8,83.86c0-3.24,2.73-5.98,5.96-5.98c1.49,0.02,2.82,0.61,4.02,1.77l-1.33,1.81
			c-0.78-0.77-1.72-1.24-2.71-1.24c-1.84,0-3.6,1.64-3.6,3.64c0,2.04,1.82,3.62,3.59,3.62c1.05,0,1.96-0.56,2.73-1.31l1.32,1.86
			c-1.01,1-2.24,1.76-3.98,1.76C130.49,89.8,127.8,87.08,127.8,83.86z"/>
		<path class="st2" d="M146.04,87.98h-4.59l-0.73,1.6h-2.49l5.48-11.76h0.07l5.49,11.76h-2.5L146.04,87.98z M145.14,86.02
			l-1.39-3.07l-1.4,3.07H145.14z"/>
		<path class="st2" d="M157.32,87.29v2.29h-6.92V78.11h2.31v9.18H157.32z"/>
		<path class="st2" d="M157.76,83.86c0-3.24,2.73-5.98,5.96-5.98c1.49,0.02,2.82,0.61,4.02,1.77l-1.33,1.81
			c-0.78-0.77-1.72-1.24-2.71-1.24c-1.84,0-3.6,1.64-3.6,3.64c0,2.04,1.82,3.62,3.59,3.62c1.05,0,1.96-0.56,2.73-1.31l1.32,1.86
			c-1.01,1-2.24,1.76-3.98,1.76C160.45,89.8,157.76,87.08,157.76,83.86z"/>
		<path class="st2" d="M168.94,85.34v-7.23h2.32v7.22c0,1.25,0.99,2.16,2.1,2.16c1.11,0,2.11-0.92,2.11-2.16v-7.22h2.32v7.23
			c0,2.6-1.99,4.49-4.43,4.49C170.92,89.83,168.94,87.94,168.94,85.34z"/>
		<path class="st2" d="M186.6,87.29v2.29h-6.92V78.11h2.31v9.18H186.6z"/>
		<path class="st2" d="M194.86,87.98h-4.59l-0.73,1.6h-2.49l5.48-11.76h0.07l5.49,11.76h-2.5L194.86,87.98z M193.96,86.02
			l-1.39-3.07l-1.4,3.07H193.96z"/>
		<path class="st2" d="M205.06,80.4h-2.82v9.19h-2.31V80.4h-2.83v-2.28h7.96V80.4z"/>
		<path class="st2" d="M205.29,83.86c0-3.29,2.68-5.98,5.96-5.98c3.28,0,5.97,2.69,5.97,5.98c0,3.27-2.69,5.94-5.98,5.94
			C207.97,89.8,205.29,87.13,205.29,83.86z M214.89,83.85c0-2.01-1.64-3.64-3.64-3.64c-2,0-3.63,1.64-3.63,3.64
			c0,1.99,1.63,3.62,3.63,3.62C213.26,87.47,214.89,85.84,214.89,83.85z"/>
		<path class="st2" d="M224.68,89.58l-3.65-5.42v5.42h-2.31l-0.01-11.47h3.74c2.14,0,3.9,1.65,3.9,3.71c0,1.47-0.89,2.76-2.12,3.2
			l3.26,4.56H224.68z M221.03,83.28l1.48,0.01c0.78,0.01,1.48-0.63,1.48-1.44c0-0.82-0.7-1.44-1.48-1.44h-1.48V83.28z"/>
	</g>
</g>
<g>
	<g>
		<g>
			<path class="st3" d="M55.07,89l6.86-4.82c1.88,3.02,4.61,4.39,8.29,4.39c4.02,0,6.72-1.64,6.72-3.92c0-3.12-5.11-5.59-9.58-7.81
				c-4.79-2.38-10.06-5-10.06-11.81c0-7.39,6.25-12.26,14.08-12.26c5.82,0,10.64,2.41,12.57,7.57l-6.33,4.42
				c-1.27-2.54-3.73-3.57-6.12-3.57c-3.2,0-5.59,1.85-5.59,4.05c0,2.54,3.23,3.42,8.13,5.72c7.07,3.34,11.52,6.94,11.52,13.5
				c0,7.78-6.35,12.73-15.49,12.73C63.1,97.21,57.93,94.3,55.07,89z"/>
		</g>
	</g>
	<g>
		<path class="st1" d="M40.46,52.79h15.6c8.6,0,15.62,6.75,15.62,15.02c0,8.24-7.03,14.96-15.62,14.96h-6.67v14.44h-8.93V52.79z
			 M62.76,67.72c0-3.36-3-6.09-6.7-6.09h-6.67v12.29l6.67,0.03C59.75,73.98,62.76,71.17,62.76,67.72z"/>
		<path class="st2" d="M24.23,52.79h15.6c8.6,0,15.62,6.75,15.62,15.02c0,8.24-7.03,14.96-15.62,14.96h-6.67v14.44h-8.93V52.79z
			 M46.52,67.72c0-3.36-3-6.09-6.7-6.09h-6.67v12.29l6.67,0.03C43.52,73.98,46.52,71.17,46.52,67.72z"/>
	</g>
</g>
</svg>
